<?xml version="1.0" encoding="utf-8"?>
<!-- Generator: Adobe Illustrator 17.0.0, SVG Export Plug-In . SVG Version: 6.00 Build 0)  -->
<!DOCTYPE svg PUBLIC "-//W3C//DTD SVG 1.1//EN" "http://www.w3.org/Graphics/SVG/1.1/DTD/svg11.dtd">
<svg version="1.1" xmlns="http://www.w3.org/2000/svg" xmlns:xlink="http://www.w3.org/1999/xlink" x="0px" y="0px" width="512px"
	 height="512px" viewBox="0 0 512 512" enable-background="new 0 0 512 512" xml:space="preserve">
<g id="P">
	<path fill="#993399" d="M207.358,106.122c-3.249-4.455-4.864-8.512-4.864-12.16c0-6.08,2.831-11.342,8.512-15.809
		c5.672-4.455,11.552-6.688,17.633-6.688c4.047,0,7.8,1.321,11.248,3.952c3.439,2.643,6.688,5.987,9.728,10.032
		c3.04,4.057,5.871,8.208,8.512,12.465c2.633,4.256,4.96,8.208,6.992,11.856c9.322-8.103,19.857-14.99,31.617-20.673
		c11.754-5.671,24.929-8.512,39.522-8.512c21.073,0,38.811,3.344,53.202,10.032c14.384,6.688,26.145,15.505,35.265,26.449
		c9.12,10.944,15.905,23.409,20.369,37.394c4.457,13.985,7.088,28.273,7.904,42.866c0,11.763-2.231,24.122-6.688,37.09
		c-4.464,12.979-11.153,25.034-20.065,36.177c-8.919,11.155-20.273,20.369-34.049,27.665c-13.783,7.296-30.001,10.944-48.642,10.944
		c-10.944,0-20.977-1.006-30.097-3.04c-9.12-2.023-17.537-4.654-25.233-7.904c0,24.321-0.407,47.426-1.216,69.315
		c-0.816,21.889-2.231,40.13-4.256,54.722c-0.816,6.08-3.344,10.64-7.6,13.681s-8.615,4.56-13.073,4.56
		c-6.898,0-13.073-1.824-18.545-5.472c-5.472-3.648-8.208-8.72-8.208-15.201c0-17.025,0.703-36.879,2.128-59.586
		c1.416-22.696,2.128-46.409,2.128-71.139c0-23.503-0.209-46.818-0.608-69.923c-0.408-23.105-1.216-43.778-2.432-62.019
		c-3.648-7.694-7.904-16.007-12.769-24.929C218.91,123.357,213.438,114.634,207.358,106.122z M283.361,154.764
		c1.216,14.593,2.128,29.898,2.736,45.906c0.608,16.019,1.113,32.132,1.52,48.338c6.889,6.489,14.688,11.05,23.409,13.681
		c8.713,2.643,19.153,3.952,31.313,3.952s22.289-2.631,30.401-7.904c8.105-5.262,14.593-11.751,19.457-19.457
		c4.864-7.694,8.304-15.902,10.336-24.625c2.025-8.711,3.04-16.51,3.04-23.409c-0.816-7.296-2.64-14.791-5.472-22.497
		c-2.839-7.694-6.896-14.593-12.16-20.673c-5.271-6.08-11.856-11.143-19.761-15.201c-7.904-4.046-17.329-6.08-28.273-6.08
		c-14.193,0-25.745,2.643-34.657,7.904C296.331,139.973,289.034,146.661,283.361,154.764z"/>
</g>
<g id="bot_eye">
	<path fill="#993399" d="M86.969,314.066h3.04c5.263,0,11.343,0.819,18.241,2.432c6.888,1.625,13.167,4.256,18.849,7.904
		c5.672,3.648,10.536,8.723,14.593,15.201c4.047,6.49,6.08,14.593,6.08,24.321c0,8.115-1.52,15.002-4.56,20.673
		c-3.04,5.683-6.992,10.336-11.856,13.985c-4.864,3.648-10.136,6.291-15.809,7.904c-5.682,1.625-11.154,2.432-16.417,2.432
		c-4.864,0-9.728-1.216-14.593-3.648c-4.864-2.432-9.12-5.566-12.769-9.424c-3.648-3.847-6.688-8.103-9.12-12.769
		C60.216,378.423,59,373.863,59,369.397c0-4.046,1.52-9.214,4.56-15.505c3.04-6.279,6.783-10.64,11.248-13.073
		c-2.432-2.432-3.648-5.87-3.648-10.336c0-3.648,1.216-7.086,3.648-10.336C77.241,316.908,81.288,314.885,86.969,314.066z"/>
</g>
<g id="top_eye">
	<path fill="#993399" d="M86.969,83.017h3.04c5.263,0,11.343,0.818,18.241,2.432c6.888,1.625,13.167,4.256,18.849,7.904
		c5.672,3.648,10.536,8.723,14.593,15.201c4.047,6.489,6.08,14.593,6.08,24.321c0,8.115-1.52,15.002-4.56,20.673
		c-3.04,5.683-6.992,10.336-11.856,13.985s-10.136,6.291-15.809,7.904c-5.682,1.625-11.154,2.432-16.417,2.432
		c-4.864,0-9.728-1.216-14.593-3.648c-4.864-2.432-9.12-5.566-12.769-9.424c-3.648-3.847-6.688-8.103-9.12-12.769
		C60.216,147.374,59,142.814,59,138.347c0-4.046,1.52-9.214,4.56-15.505c3.04-6.279,6.783-10.64,11.248-13.073
		c-2.432-2.432-3.648-5.87-3.648-10.336c0-3.648,1.216-7.086,3.648-10.336C77.241,85.858,81.288,83.835,86.969,83.017z"/>
</g>
</svg>
